<svg width="38" height="38" viewBox="0 0 38 38" fill="none" xmlns="http://www.w3.org/2000/svg">
<path d="M18.546 10.8185V18.546M4.63647 18.546C4.63647 20.3726 4.99625 22.1814 5.69527 23.8689C6.39429 25.5565 7.41886 27.0899 8.71048 28.3815C10.0021 29.6731 11.5355 30.6977 13.2231 31.3967C14.9106 32.0957 16.7194 32.4555 18.546 32.4555C20.3726 32.4555 22.1814 32.0957 23.8689 31.3967C25.5565 30.6977 27.0899 29.6731 28.3815 28.3815C29.6731 27.0899 30.6977 25.5565 31.3967 23.8689C32.0957 22.1814 32.4555 20.3726 32.4555 18.546C32.4555 16.7194 32.0957 14.9106 31.3967 13.2231C30.6977 11.5355 29.6731 10.0021 28.3815 8.71048C27.0899 7.41886 25.5565 6.39429 23.8689 5.69527C22.1814 4.99626 20.3726 4.63647 18.546 4.63647C16.7194 4.63647 14.9106 4.99626 13.2231 5.69527C11.5355 6.39429 10.0021 7.41886 8.71048 8.71048C7.41886 10.0021 6.39429 11.5355 5.69527 13.2231C4.99625 14.9106 4.63647 16.7194 4.63647 18.546Z" stroke="#4D94DD" stroke-width="5.66667" stroke-linecap="round" stroke-linejoin="round"/>
</svg>
